<svg width="66" height="65" viewBox="0 0 66 65" fill="none" xmlns="http://www.w3.org/2000/svg">
<path d="M20.757 30.1925C20.4566 30.5016 20.2211 30.866 20.064 31.265C19.7339 32.0562 19.7339 32.9437 20.064 33.735C20.2211 34.1339 20.4566 34.4984 20.757 34.8075L30.657 44.5575C31.2784 45.1695 32.1212 45.5133 33 45.5133C33.8788 45.5133 34.7216 45.1695 35.343 44.5575C35.9644 43.9455 36.3135 43.1155 36.3135 42.25C36.3135 41.3845 35.9644 40.5545 35.343 39.9425L31.053 35.75H42.9C43.7752 35.75 44.6146 35.4076 45.2334 34.7981C45.8523 34.1886 46.2 33.3619 46.2 32.5C46.2 31.638 45.8523 30.8114 45.2334 30.2019C44.6146 29.5924 43.7752 29.25 42.9 29.25H31.053L35.343 25.0575C35.6523 24.7554 35.8978 24.3959 36.0653 23.9999C36.2329 23.6038 36.3191 23.179 36.3191 22.75C36.3191 22.321 36.2329 21.8962 36.0653 21.5001C35.8978 21.1041 35.6523 20.7446 35.343 20.4425C35.0362 20.1379 34.6712 19.8961 34.2691 19.7311C33.867 19.5661 33.4356 19.4811 33 19.4811C32.5644 19.4811 32.133 19.5661 31.7309 19.7311C31.3288 19.8961 30.9638 20.1379 30.657 20.4425L20.757 30.1925ZM0 32.5C0 38.9279 1.93542 45.2114 5.5615 50.556C9.18759 55.9006 14.3415 60.0662 20.3714 62.5261C26.4014 64.9859 33.0366 65.6295 39.438 64.3755C45.8393 63.1215 51.7194 60.0262 56.3345 55.481C60.9496 50.9357 64.0926 45.1448 65.3659 38.8404C66.6392 32.536 65.9857 26.0014 63.488 20.0628C60.9903 14.1242 56.7606 9.04838 51.3338 5.47724C45.907 1.90609 39.5268 0 33 0C28.6664 0 24.3752 0.840637 20.3714 2.47391C16.3677 4.10719 12.7298 6.50112 9.66547 9.51903C3.47677 15.614 0 23.8805 0 32.5ZM59.4 32.5C59.4 37.6423 57.8516 42.6691 54.9508 46.9448C52.0499 51.2205 47.9268 54.553 43.1028 56.5209C38.2789 58.4887 32.9707 59.0036 27.8496 58.0004C22.7285 56.9972 18.0245 54.5209 14.3324 50.8848C10.6403 47.2486 8.12592 42.6158 7.10727 37.5723C6.08862 32.5288 6.61143 27.3011 8.60958 22.5502C10.6077 17.7993 13.9915 13.7387 18.3329 10.8818C22.6744 8.02487 27.7786 6.5 33 6.5C40.0017 6.5 46.7166 9.23928 51.6676 14.1152C56.6186 18.9912 59.4 25.6044 59.4 32.5Z" fill="#5797F6"/>
</svg>
